<?xml version="1.0" encoding="utf-8"?>
<!-- Generator: Adobe Illustrator 24.0.2, SVG Export Plug-In . SVG Version: 6.00 Build 0)  -->
<svg version="1.1" id="Слой_1" xmlns="http://www.w3.org/2000/svg" xmlns:xlink="http://www.w3.org/1999/xlink" x="0px" y="0px"
	 viewBox="0 0 512 512" style="enable-background:new 0 0 512 512;" xml:space="preserve">
<style type="text/css">
	.st0{fill:#CF976A;}
	.st1{fill:#A56A43;}
	.st2{fill:#FDD7AD;}
	.st3{fill:#FFFFFF;}
	.st4{fill:#603E26;}
	.st5{fill:#805333;}
	.st6{fill:#393F4A;}
	.st7{fill:#FFCE00;}
</style>
<g id="Page-1">
	<g id="_x30_66---Bear" transform="translate(0 -1)">
		<path id="Shape" class="st0" d="M309,476.6v1.1c0,19.5-15.8,35.3-35.3,35.3h-35.3c-19.5,0-35.3-15.8-35.3-35.3v-1.1H309z"/>
		<path id="Shape_1_" class="st1" d="M344.3,452.4c92.9-35.2,158.9-121.5,158.9-199.9c0-41.2-11.4-81.6-33-116.7
			c-1.3-2-1.7-4.5-1.1-6.8c0.6-2.3,2.1-4.3,4.1-5.5c5.9-3.5,11.3-7.7,16.1-12.5c27.6-27.6,30.4-69.6,6.3-93.7s-66-21.4-93.7,6.3
			c-5.9,5.9-10.9,12.7-14.8,20.2c-1.1,2.1-3,3.6-5.2,4.3c-2.2,0.7-4.7,0.4-6.7-0.7C300.4,9,211.6,9,136.8,47.6
			c-2.1,1.1-4.5,1.4-6.8,0.7c-2.3-0.7-4.1-2.3-5.2-4.3c-3.8-7.5-8.8-14.4-14.8-20.3C82.4-4,40.5-6.7,16.4,17.4s-21.4,66,6.3,93.7
			c4.8,4.8,10.3,9,16.2,12.5c2.1,1.2,3.6,3.2,4.1,5.5c0.6,2.3,0.2,4.8-1.1,6.8C20.3,171,8.9,211.4,8.8,252.6
			c0,78.4,66,164.6,158.9,199.9"/>
		<g>
			<path id="Shape_2_" class="st2" d="M194.2,71.6c-4.4,0-8.1-3.2-8.7-7.6s2-8.5,6.3-9.7c42-12.2,86.6-12.2,128.5,0
				c4.7,1.4,7.4,6.3,6,10.9c-1.4,4.7-6.3,7.4-10.9,6c-38.7-11.2-79.9-11.2-118.6,0C195.9,71.5,195,71.6,194.2,71.6L194.2,71.6z"/>
			<path id="Shape_3_" class="st2" d="M70.5,98c-8.7-1.4-16.7-5.6-22.9-11.9c-7-6.8-11.3-15.8-12.3-25.5c-0.7-6.6,1.5-13.3,6-18.2
				c4.4-4.1,10.2-6.3,16.2-6.1c10.4,0.4,20.3,4.8,27.5,12.4c6.8,6.6,11.1,15.3,12.2,24.6L70.5,98z"/>
			<path id="Shape_4_" class="st2" d="M414.7,73.3c1.1-9.4,5.4-18.1,12.2-24.6c7.2-7.6,17.1-12,27.5-12.4c6-0.2,11.8,2,16.2,6.1
				c4.5,4.9,6.7,11.5,6,18.2c-0.9,9.7-5.3,18.7-12.3,25.5c-6.1,6.4-14.1,10.5-22.9,11.9L414.7,73.3z"/>
			<path id="Shape_5_" class="st2" d="M309,476.6c-3.6,0.7-7.3,1.1-10.9,1.1h-84c-16.6,0.1-32.4-7.4-42.8-20.3
				c-10.5-12.9-14.5-29.8-11-46.1l29.3-136c6.8-31.3,34.5-53.6,66.6-53.6s59.7,22.3,66.6,53.6l29.3,136c3.1,14.4,0.2,29.3-7.8,41.6
				C336,465.2,323.4,473.7,309,476.6z"/>
		</g>
		<path id="Shape_6_" class="st3" d="M212.4,345.3c-2.7,0-5.2-1.2-6.9-3.3s-2.3-4.8-1.8-7.4l11.6-53.7c4.2-19.1,21.2-32.7,40.7-32.7
			c4.9,0,8.8,4,8.8,8.8s-4,8.8-8.8,8.8c-11.2,0-21,7.8-23.4,18.8L221,338.3C220.1,342.4,216.5,345.3,212.4,345.3L212.4,345.3z"/>
		<path id="Shape_7_" class="st4" d="M265.5,424.7h-19c-5.8,0.1-11.3-2.7-14.8-7.3l-8-11.2c-3.5-4.8-4-11.3-1.1-16.5
			c3.2-5.7,9.3-9.2,15.9-9.1h35.1c6.6-0.1,12.7,3.4,15.9,9.1c2.8,5.3,2.4,11.7-1.1,16.5l-8,11.2
			C276.8,422.1,271.3,424.8,265.5,424.7L265.5,424.7z"/>
		<path id="Rectangle-path" class="st5" d="M247.2,424.7h17.7v53h-17.7V424.7z"/>
		<circle id="Oval" class="st6" cx="150.1" cy="239.3" r="17.7"/>
		<path id="Shape_8_" class="st4" d="M158.9,230.5h-44.1c-4.9,0-8.8-4-8.8-8.8s4-8.8,8.8-8.8h44.1c4.9,0,8.8,4,8.8,8.8
			S163.8,230.5,158.9,230.5z"/>
		<circle id="Oval_1_" class="st6" cx="361.9" cy="239.3" r="17.7"/>
		<path id="Shape_9_" class="st4" d="M397.2,230.5h-44.1c-4.9,0-8.8-4-8.8-8.8s4-8.8,8.8-8.8h44.1c4.9,0,8.8,4,8.8,8.8
			S402.1,230.5,397.2,230.5z"/>
		<path id="Shape_10_" class="st5" d="M70.5,106.8c-0.4,0-0.8,0-1.2-0.1c-10.6-1.6-20.5-6.7-27.9-14.5C32.9,84,27.7,73,26.6,61.2
			c-0.9-9.2,2.2-18.3,8.6-25c6-5.8,14.1-8.9,22.4-8.7c12.8,0.4,24.9,5.7,33.8,14.9c8.2,8,13.4,18.6,14.7,30c0.4,4.8-3.2,9-8,9.5
			c-4.8,0.5-9.1-3-9.6-7.8c-0.9-7.3-4.3-14.1-9.6-19.2c-5.5-5.9-13.2-9.4-21.3-9.8c-3.6-0.2-7.2,1.1-9.9,3.5
			c-2.7,3.1-4,7.3-3.4,11.4c0.8,7.5,4.2,14.6,9.7,19.8c4.8,5,11,8.3,17.8,9.4c4.6,0.7,7.9,4.7,7.6,9.4S75.2,106.8,70.5,106.8
			L70.5,106.8z"/>
		<path id="Shape_11_" class="st5" d="M441.5,106.8c-4.6,0-8.5-3.6-8.8-8.2s3-8.7,7.6-9.4c6.8-1.1,13-4.4,17.8-9.4
			c5.5-5.3,8.9-12.3,9.7-19.9c0.5-4.1-0.8-8.2-3.4-11.3c-2.7-2.4-6.3-3.7-9.9-3.5c-8.1,0.3-15.7,3.9-21.3,9.8
			c-5.3,5.1-8.7,11.9-9.6,19.2c-0.2,2.3-1.3,4.5-3.1,6c-1.8,1.5-4.2,2.2-6.5,1.9c-4.8-0.5-8.4-4.8-7.9-9.6c1.4-11.4,6.5-22,14.7-30
			c8.9-9.2,21-14.6,33.8-15c8.3-0.2,16.4,2.9,22.4,8.7c6.3,6.7,9.5,15.8,8.6,25c-1.1,11.8-6.3,22.9-14.8,31.2
			c-7.5,7.7-17.3,12.8-27.9,14.4C442.3,106.8,441.9,106.8,441.5,106.8z"/>
	</g>
</g>
<g>
	<path class="st7" d="M462.4,175H432c-16.1-15.3-37.9-24.6-61.8-24.6c-28.1,0-53.3,13-69.8,33.3c-26-20.6-63.2-20.6-89.3,0
		c-16.5-20.3-41.6-33.3-69.8-33.3c-23.9,0-45.6,9.4-61.8,24.6H49.3c-7.1,0-12.9,5.8-12.9,12.9s5.8,12.9,12.9,12.9h11.5
		c-5.9,11.9-9.2,25.3-9.2,39.5c0,49.5,40.3,89.9,89.9,89.9s89.9-40.3,89.9-89.9c0-12.1-2.4-23.6-6.8-34.2
		c17.6-16.2,44.9-16.2,62.6,0c-4.4,10.5-6.8,22.1-6.8,34.2c0,49.5,40.3,89.9,89.9,89.9s89.9-40.3,89.9-89.9
		c0-14.2-3.3-27.6-9.2-39.5h11.5c7.1,0,12.9-5.8,12.9-12.9S469.5,175,462.4,175L462.4,175z M141.5,304.4
		c-35.4,0-64.1-28.8-64.1-64.1s28.8-64.1,64.1-64.1s64.1,28.8,64.1,64.1S176.8,304.4,141.5,304.4z M370.2,304.4
		c-35.4,0-64.1-28.8-64.1-64.1s28.8-64.1,64.1-64.1s64.1,28.8,64.1,64.1S405.6,304.4,370.2,304.4z"/>
</g>
</svg>
